<svg width="1500" height="1500" viewBox="0 0 1500 1500" fill="none" xmlns="http://www.w3.org/2000/svg">
<g clip-path="url(#clip0_1_4)">
<g filter="url(#filter0_f_1_4)">
<path fill-rule="evenodd" clip-rule="evenodd" d="M1353 1248.91L751.601 74L151 1247.35C311.796 1107.97 521.6 1023.62 751.103 1023.62C981.462 1023.62 1191.97 1108.6 1353 1248.91Z" fill="url(#paint0_linear_1_4)" fill-opacity="0.3"/>
</g>
<circle cx="750" cy="1699" r="750" fill="url(#paint1_radial_1_4)"/>
<path fill-rule="evenodd" clip-rule="evenodd" d="M1243.49 1141.35L751.412 180L259.991 1140.05C391.557 1026.01 563.219 957 751 957C939.489 957 1111.74 1026.53 1243.49 1141.35Z" fill="url(#paint2_linear_1_4)"/>
<path d="M290.5 1106L752.098 224L1210.5 1106L752.098 431.262H745.515L290.5 1106Z" fill="url(#paint3_linear_1_4)"/>
</g>
<defs>
<filter id="filter0_f_1_4" x="-12.2" y="-89.2" width="1528.4" height="1501.31" filterUnits="userSpaceOnUse" color-interpolation-filters="sRGB">
<feFlood flood-opacity="0" result="BackgroundImageFix"/>
<feBlend mode="normal" in="SourceGraphic" in2="BackgroundImageFix" result="shape"/>
<feGaussianBlur stdDeviation="81.6" result="effect1_foregroundBlur_1_4"/>
</filter>
<linearGradient id="paint0_linear_1_4" x1="751.597" y1="74" x2="751.597" y2="1252.09" gradientUnits="userSpaceOnUse">
<stop stop-color="#00544D"/>
<stop offset="1" stop-color="#35FDEC"/>
</linearGradient>
<radialGradient id="paint1_radial_1_4" cx="0" cy="0" r="1" gradientUnits="userSpaceOnUse" gradientTransform="translate(750 1699) rotate(89.5843) scale(750 925.606)">
<stop offset="0.832108" stop-opacity="0"/>
<stop offset="1" stop-color="#00544D"/>
</radialGradient>
<linearGradient id="paint2_linear_1_4" x1="751.413" y1="180" x2="751.413" y2="1143.94" gradientUnits="userSpaceOnUse">
<stop stop-color="#35FDEC"/>
<stop offset="1" stop-color="#0D6C64"/>
</linearGradient>
<linearGradient id="paint3_linear_1_4" x1="752.336" y1="224" x2="752.336" y2="1140.61" gradientUnits="userSpaceOnUse">
<stop stop-color="#0D6C64"/>
<stop offset="1" stop-color="#0D6C64"/>
</linearGradient>
<clipPath id="clip0_1_4">
<rect width="1500" height="1500" fill="white"/>
</clipPath>
</defs>
</svg>
